<svg width="60" height="14" viewBox="0 0 60 14" fill="none" xmlns="http://www.w3.org/2000/svg">
<g filter="url(#filter0_d_2499_1527)">
<path d="M18.6879 9.70557H17.6516L19.9641 4.25782H21.0498L23.4118 9.70557H22.326L21.7051 8.21982H19.8955L20.2422 7.34361H21.3393L20.4822 5.29785L18.6879 9.70557ZM23.9832 9.70557V5.70547H24.7642L24.8899 6.29215C25.2734 5.90103 25.7102 5.70547 26.2004 5.70547C27.1477 5.70547 27.6214 6.19818 27.6214 7.1836V9.70557H26.6119V7.1836C26.6119 6.74169 26.3922 6.52073 25.9528 6.52073C25.6252 6.52073 25.3052 6.65153 24.9928 6.91312V9.70557H23.9832ZM28.3871 8.45982C28.3871 7.66488 28.9662 7.26742 30.1243 7.26742C30.3961 7.26742 30.6678 7.29281 30.9396 7.34361V7.04265C30.9396 6.68454 30.6818 6.50549 30.1662 6.50549C29.7294 6.50549 29.2443 6.56899 28.7109 6.69597V5.89596C29.2443 5.76897 29.7294 5.70547 30.1662 5.70547C31.3548 5.70547 31.9491 6.14485 31.9491 7.0236V9.70557H31.3624L31.0043 9.34746C30.6564 9.5862 30.2729 9.70557 29.8538 9.70557C28.876 9.70557 28.3871 9.29032 28.3871 8.45982ZM30.9396 8.02934C30.6856 7.97854 30.4138 7.95315 30.1243 7.95315C29.6392 7.95315 29.3967 8.11823 29.3967 8.44839C29.3967 8.80396 29.5999 8.98174 30.0062 8.98174C30.3415 8.98174 30.6526 8.87761 30.9396 8.66935V8.02934ZM33.9149 4.25782V9.70557H32.9053V4.25782H33.9149ZM34.3949 5.70547H35.4654L36.4749 8.58554L37.4616 5.70547H38.5131L36.8521 9.82366C36.5575 10.55 36.0864 11.0669 35.4387 11.3742L34.9511 10.6846C35.3981 10.4891 35.7232 10.1703 35.9263 9.72842L34.3949 5.70547ZM38.9359 5.05784H39.6826L39.835 5.70547H40.8407V6.50549H39.9455V8.34554C39.9455 8.71888 40.1068 8.90555 40.4293 8.90555H40.8407V9.70557H39.9417C39.2712 9.70557 38.9359 9.34619 38.9359 8.62745V5.05784ZM42.5398 4.25782V5.05784H41.5303V4.25782H42.5398ZM42.5398 5.70547V9.70557H41.5303V5.70547H42.5398ZM46.4485 9.59128C46.1183 9.66747 45.7755 9.70557 45.4199 9.70557C43.9976 9.70557 43.2865 9.01349 43.2865 7.62933C43.2865 6.34676 43.9976 5.70547 45.4199 5.70547C45.7755 5.70547 46.1183 5.74357 46.4485 5.81976V6.61978C46.1183 6.54359 45.8009 6.50549 45.4961 6.50549C44.6961 6.50549 44.2961 6.8801 44.2961 7.62933C44.2961 8.48014 44.6961 8.90555 45.4961 8.90555C45.8009 8.90555 46.1183 8.86745 46.4485 8.79126V9.59128ZM47.1152 9.51509V8.67697C47.5596 8.85475 48.0727 8.94364 48.6543 8.94364C49.0886 8.94364 49.3057 8.80396 49.3057 8.52459C49.3057 8.25791 49.1597 8.12458 48.8676 8.12458H48.1438C47.3311 8.12458 46.9247 7.72457 46.9247 6.92455C46.9247 6.08644 47.5177 5.66738 48.7038 5.66738C49.2067 5.66738 49.6803 5.74357 50.1248 5.89596V6.73407C49.6803 6.55629 49.1978 6.4674 48.6771 6.4674C48.1311 6.4674 47.8581 6.60708 47.8581 6.88645C47.8581 7.15313 48.0168 7.28646 48.3343 7.28646H48.9819C49.8708 7.28646 50.3153 7.68647 50.3153 8.48649C50.3153 9.32461 49.7489 9.74366 48.6162 9.74366C48.06 9.74366 47.5596 9.66747 47.1152 9.51509Z" fill="white"/>
<ellipse cx="4.43941" cy="9.77673" rx="1.34566" ry="1.3197" fill="white"/>
<path d="M6.76367 6.68355C6.76367 5.94036 7.36614 5.33789 8.10933 5.33789V5.33789C8.85251 5.33789 9.45498 5.94036 9.45498 6.68355V9.75092C9.45498 10.4941 8.85251 11.0966 8.10933 11.0966V11.0966C7.36614 11.0966 6.76367 10.4941 6.76367 9.75092V6.68355Z" fill="white"/>
<rect x="10.4336" y="2.4585" width="2.69131" height="8.63802" rx="1.34566" fill="white"/>
</g>
<defs>
<filter id="filter0_d_2499_1527" x="0.864583" y="0.229329" width="51.68" height="13.3739" filterUnits="userSpaceOnUse" color-interpolation-filters="sRGB">
<feFlood flood-opacity="0" result="BackgroundImageFix"/>
<feColorMatrix in="SourceAlpha" type="matrix" values="0 0 0 0 0 0 0 0 0 0 0 0 0 0 0 0 0 0 127 0" result="hardAlpha"/>
<feOffset/>
<feGaussianBlur stdDeviation="1.11458"/>
<feComposite in2="hardAlpha" operator="out"/>
<feColorMatrix type="matrix" values="0 0 0 0 1 0 0 0 0 1 0 0 0 0 1 0 0 0 0.35 0"/>
<feBlend mode="normal" in2="BackgroundImageFix" result="effect1_dropShadow_2499_1527"/>
<feBlend mode="normal" in="SourceGraphic" in2="effect1_dropShadow_2499_1527" result="shape"/>
</filter>
</defs>
</svg>
