<svg width="47" height="11" viewBox="0 0 47 11" fill="none" xmlns="http://www.w3.org/2000/svg">
<path d="M17.1773 5.7167H18.225C18.197 6.0875 18.0942 6.4164 17.9164 6.70339C17.7386 6.98784 17.491 7.21134 17.1735 7.37388C16.856 7.53642 16.4713 7.6177 16.0192 7.6177C15.6712 7.6177 15.3576 7.55674 15.0782 7.43483C14.8014 7.31039 14.5639 7.13388 14.3658 6.9053C14.1703 6.67418 14.0204 6.39735 13.9163 6.0748C13.8122 5.74972 13.7601 5.38526 13.7601 4.98145V4.55858C13.7601 4.15476 13.8134 3.79031 13.9201 3.46522C14.0268 3.14013 14.1791 2.8633 14.3772 2.63472C14.5779 2.40361 14.8179 2.22583 15.0973 2.10138C15.3792 1.97693 15.6941 1.91471 16.042 1.91471C16.4941 1.91471 16.8764 1.99852 17.1887 2.16614C17.5011 2.33123 17.7437 2.55853 17.9164 2.84806C18.0891 3.13759 18.1932 3.4703 18.2288 3.84618H17.1811C17.1608 3.61253 17.11 3.41443 17.0287 3.25188C16.95 3.08934 16.8306 2.96616 16.6706 2.88235C16.5132 2.796 16.3036 2.75282 16.042 2.75282C15.8389 2.75282 15.6598 2.79092 15.5049 2.86711C15.3525 2.9433 15.2255 3.05759 15.1239 3.20998C15.0223 3.35982 14.9462 3.54776 14.8954 3.7738C14.8446 3.9973 14.8192 4.25635 14.8192 4.55096V4.98145C14.8192 5.26336 14.842 5.51606 14.8877 5.73956C14.9335 5.96306 15.0046 6.15227 15.1011 6.30719C15.1976 6.46211 15.322 6.58021 15.4744 6.66148C15.6268 6.74276 15.8084 6.78339 16.0192 6.78339C16.2757 6.78339 16.484 6.74276 16.644 6.66148C16.8065 6.58021 16.9297 6.46084 17.0135 6.30338C17.0999 6.14592 17.1545 5.95036 17.1773 5.7167ZM20.0269 1.68994V7.5415H19.0174V1.68994H20.0269ZM23.2575 6.66529V4.7643C23.2575 4.62461 23.2333 4.50397 23.1851 4.40238C23.1368 4.30079 23.0632 4.22206 22.9641 4.16619C22.8651 4.11031 22.7393 4.08238 22.587 4.08238C22.4524 4.08238 22.3343 4.10523 22.2327 4.15095C22.1336 4.19667 22.0574 4.26143 22.0041 4.34524C21.9508 4.42651 21.9241 4.52048 21.9241 4.62715H20.9145C20.9145 4.45699 20.9552 4.29572 21.0364 4.14333C21.1177 3.98841 21.2333 3.85126 21.3831 3.73189C21.5355 3.60999 21.7171 3.51474 21.9279 3.44617C22.1412 3.3776 22.38 3.34331 22.6441 3.34331C22.9565 3.34331 23.2346 3.39665 23.4784 3.50332C23.7248 3.60745 23.9178 3.76491 24.0575 3.97571C24.1997 4.18651 24.2708 4.45191 24.2708 4.77192V6.57005C24.2708 6.77577 24.2835 6.95228 24.3089 7.09959C24.3368 7.24435 24.3775 7.37007 24.4308 7.47674V7.5415H23.406C23.3578 7.43737 23.3209 7.30531 23.2955 7.1453C23.2702 6.98276 23.2575 6.82276 23.2575 6.66529ZM23.3984 5.03097L23.406 5.62908H22.7698C22.6124 5.62908 22.4739 5.64559 22.3546 5.6786C22.2352 5.70908 22.1374 5.7548 22.0612 5.81575C21.985 5.87416 21.9279 5.94528 21.8898 6.02909C21.8517 6.11036 21.8327 6.20306 21.8327 6.30719C21.8327 6.40878 21.8555 6.50021 21.9012 6.58148C21.9495 6.66275 22.0181 6.72752 22.107 6.77577C22.1984 6.82149 22.305 6.84435 22.427 6.84435C22.6047 6.84435 22.7597 6.80879 22.8917 6.73768C23.0238 6.66402 23.1267 6.57513 23.2003 6.471C23.274 6.36687 23.3133 6.26782 23.3184 6.17385L23.6079 6.60815C23.5724 6.71228 23.519 6.82276 23.4479 6.93959C23.3768 7.05641 23.2854 7.16562 23.1736 7.26721C23.0619 7.3688 22.9273 7.45261 22.7698 7.51865C22.6124 7.58468 22.4295 7.6177 22.2212 7.6177C21.9546 7.6177 21.7158 7.56436 21.505 7.45769C21.2942 7.35102 21.1279 7.20499 21.006 7.01959C20.8841 6.83419 20.8231 6.62339 20.8231 6.38719C20.8231 6.16877 20.8637 5.97575 20.945 5.80813C21.0263 5.64051 21.1469 5.49955 21.3069 5.38526C21.4669 5.26844 21.665 5.18081 21.9012 5.1224C22.14 5.06145 22.413 5.03097 22.7203 5.03097H23.3984ZM26.1832 4.26143V7.5415H25.1775V3.4195H26.1299L26.1832 4.26143ZM27.4366 3.39284L27.4214 4.33C27.3655 4.31984 27.302 4.31222 27.2309 4.30714C27.1623 4.30206 27.0975 4.29952 27.0366 4.29952C26.8817 4.29952 26.7458 4.32111 26.629 4.36429C26.5121 4.40492 26.4143 4.46461 26.3356 4.54334C26.2594 4.62207 26.201 4.71858 26.1604 4.83287C26.1197 4.94462 26.0969 5.07161 26.0918 5.21383L25.8747 5.18716C25.8747 4.92557 25.9013 4.68303 25.9547 4.45953C26.008 4.23603 26.0855 4.04047 26.187 3.87285C26.2886 3.70523 26.4156 3.5757 26.568 3.48427C26.7229 3.3903 26.9007 3.34331 27.1013 3.34331C27.1572 3.34331 27.2169 3.34839 27.2804 3.35855C27.3464 3.36617 27.3985 3.3776 27.4366 3.39284ZM29.0557 3.4195V7.5415H28.0461V3.4195H29.0557ZM27.9776 2.34138C27.9776 2.19154 28.0284 2.06709 28.1299 1.96804C28.2341 1.86899 28.3738 1.81947 28.549 1.81947C28.7242 1.81947 28.8627 1.86899 28.9642 1.96804C29.0684 2.06709 29.1204 2.19154 29.1204 2.34138C29.1204 2.48869 29.0684 2.61187 28.9642 2.71092C28.8627 2.80997 28.7242 2.85949 28.549 2.85949C28.3738 2.85949 28.2341 2.80997 28.1299 2.71092C28.0284 2.61187 27.9776 2.48869 27.9776 2.34138ZM31.9662 3.4195V4.14333H29.6043V3.4195H31.9662ZM30.2367 2.40615H31.2462V6.35291C31.2462 6.47481 31.2627 6.56878 31.2957 6.63482C31.3287 6.70085 31.3783 6.7453 31.4443 6.76815C31.5103 6.79101 31.5891 6.80244 31.6805 6.80244C31.7465 6.80244 31.8075 6.79863 31.8634 6.79101C31.9192 6.78339 31.9662 6.77577 32.0043 6.76815L32.0081 7.52246C31.9243 7.55039 31.8291 7.57325 31.7224 7.59103C31.6183 7.60881 31.5002 7.6177 31.3681 7.6177C31.1421 7.6177 30.944 7.5796 30.7738 7.50341C30.6037 7.42468 30.4716 7.29896 30.3776 7.12626C30.2836 6.95101 30.2367 6.7199 30.2367 6.43291V2.40615ZM33.8444 7.08435L34.9492 3.4195H36.0273L34.3739 8.16628C34.3358 8.26787 34.2863 8.37835 34.2253 8.49772C34.1669 8.61708 34.0882 8.7301 33.9891 8.83677C33.8901 8.94598 33.7656 9.03487 33.6158 9.10344C33.4685 9.17202 33.2894 9.2063 33.0786 9.2063C32.9872 9.2063 32.9059 9.19995 32.8348 9.18726C32.7637 9.17456 32.6888 9.15805 32.61 9.13773V8.38343C32.6354 8.38597 32.6647 8.38724 32.6977 8.38724C32.7332 8.38978 32.7637 8.39105 32.7891 8.39105C32.9364 8.39105 33.0583 8.37327 33.1548 8.33771C33.2513 8.3047 33.3288 8.25009 33.3872 8.1739C33.4482 8.10025 33.499 8.00374 33.5396 7.88437L33.8444 7.08435ZM33.2996 3.4195L34.2329 6.45576L34.3968 7.51865L33.7034 7.64436L32.2138 3.4195H33.2996Z" fill="white"/>
<path d="M5.30306 1.34791C5.51901 0.984257 6.04544 0.984256 6.2614 1.34791L9.62596 7.01362C9.84656 7.38511 9.57884 7.85547 9.14679 7.85547H2.41766C1.98561 7.85547 1.71789 7.38511 1.93849 7.01362L5.30306 1.34791Z" fill="white"/>
<path d="M7.38331 3.86035L9.45798 7.39086C9.74439 7.87826 9.20685 8.43318 8.71058 8.16241L3.32812 5.22572L7.38331 3.86035Z" fill="#ACA7A7"/>
</svg>
