<svg width="397" height="227" viewBox="0 0 397 227" fill="none" xmlns="http://www.w3.org/2000/svg">
<g filter="url(#filter0_d_2918_1705)">
<path d="M382.655 158.469C383.165 157.852 384.166 158.158 384.244 158.954L384.851 165.165C384.884 165.501 385.102 165.79 385.416 165.914L391.219 168.21C391.963 168.504 391.981 169.551 391.248 169.872L385.529 172.368C385.219 172.503 385.011 172.8 384.99 173.137L384.6 179.365C384.55 180.164 383.56 180.505 383.029 179.906L378.887 175.238C378.663 174.986 378.317 174.88 377.99 174.964L371.946 176.518C371.171 176.717 370.541 175.881 370.946 175.19L374.105 169.809C374.276 169.518 374.27 169.156 374.089 168.871L370.744 163.603C370.315 162.927 370.915 162.069 371.697 162.242L377.791 163.583C378.121 163.656 378.463 163.538 378.678 163.278L382.655 158.469Z" fill="url(#paint0_linear_2918_1705)" shape-rendering="crispEdges"/>
</g>
<g filter="url(#filter1_d_2918_1705)">
<path d="M381.022 206.973C381.305 206.63 381.862 206.8 381.905 207.243L382.227 210.541C382.246 210.728 382.367 210.888 382.541 210.957L385.622 212.176C386.036 212.34 386.046 212.922 385.638 213.1L382.602 214.425C382.43 214.5 382.314 214.665 382.303 214.852L382.095 218.16C382.068 218.603 381.518 218.793 381.222 218.46L379.023 215.982C378.899 215.841 378.706 215.782 378.525 215.829L375.315 216.654C374.884 216.765 374.534 216.3 374.759 215.917L376.437 213.059C376.532 212.897 376.529 212.696 376.428 212.538L374.652 209.741C374.413 209.365 374.747 208.889 375.181 208.984L378.417 209.697C378.601 209.737 378.791 209.671 378.91 209.527L381.022 206.973Z" fill="url(#paint1_linear_2918_1705)" shape-rendering="crispEdges"/>
</g>
<g filter="url(#filter2_d_2918_1705)">
<g clip-path="url(#clip0_2918_1705)">
<rect x="20" y="16" width="347" height="185" rx="6" fill="white"/>
<rect x="20" y="16" width="347" height="20" fill="url(#paint2_linear_2918_1705)"/>
<circle cx="70.5" cy="27.5" r="4.5" fill="white"/>
<circle cx="55.5" cy="27.5" r="4.5" fill="white"/>
<circle cx="40.5" cy="27.5" r="4.5" fill="white"/>
<path d="M69.3477 56.2852L70.3047 58.2676C68.5273 59.0879 67.1374 60.0905 66.1348 61.2754C65.1777 62.4147 64.6992 63.7591 64.6992 65.3086C64.6992 65.9922 64.8131 66.5618 65.041 67.0176C65.3145 67.4733 65.6335 67.8835 65.998 68.248C66.3626 68.5671 66.7272 68.9089 67.0918 69.2734C67.4564 69.5924 67.7526 70.0026 67.9805 70.5039C68.2539 70.9596 68.3906 71.5521 68.3906 72.2812C68.3906 73.2839 68.0033 74.1497 67.2285 74.8789C66.4993 75.6081 65.5423 75.9727 64.3574 75.9727C63.5827 75.9727 62.8307 75.7448 62.1016 75.2891C61.3724 74.8333 60.7799 74.1497 60.3242 73.2383C59.9141 72.3268 59.709 71.1647 59.709 69.752C59.709 67.929 60.1191 66.1289 60.9395 64.3516C61.7598 62.5286 62.8991 60.9108 64.3574 59.498C65.8158 58.0853 67.4792 57.0143 69.3477 56.2852ZM56.7695 56.2852L57.7266 58.2676C55.9492 59.0879 54.5592 60.0905 53.5566 61.2754C52.5996 62.4147 52.1211 63.7591 52.1211 65.3086C52.1211 65.9922 52.235 66.5618 52.4629 67.0176C52.7363 67.4733 53.0553 67.8835 53.4199 68.248C53.7845 68.5671 54.1491 68.9089 54.5137 69.2734C54.8783 69.5924 55.1745 70.0026 55.4023 70.5039C55.6758 70.9596 55.8125 71.5521 55.8125 72.2812C55.8125 73.2839 55.4251 74.1497 54.6504 74.8789C53.9212 75.6081 52.9642 75.9727 51.7793 75.9727C51.0046 75.9727 50.2526 75.7448 49.5234 75.2891C48.7943 74.8333 48.2018 74.1497 47.7461 73.2383C47.3359 72.3268 47.1309 71.1647 47.1309 69.752C47.1309 67.929 47.541 66.1289 48.3613 64.3516C49.1816 62.5286 50.321 60.9108 51.7793 59.498C53.2376 58.0853 54.901 57.0143 56.7695 56.2852Z" fill="url(#paint3_linear_2918_1705)"/>
</g>
</g>
<g filter="url(#filter3_d_2918_1705)">
<path d="M363.669 186.998C363.976 186.259 365.024 186.259 365.331 186.998L367.066 191.17C367.196 191.481 367.489 191.694 367.825 191.721L372.329 192.082C373.127 192.146 373.451 193.142 372.843 193.663L369.411 196.602C369.155 196.822 369.043 197.167 369.121 197.495L370.17 201.89C370.355 202.669 369.508 203.284 368.825 202.867L364.969 200.512C364.681 200.336 364.319 200.336 364.031 200.512L360.175 202.867C359.492 203.284 358.645 202.669 358.83 201.89L359.879 197.495C359.957 197.167 359.845 196.822 359.589 196.602L356.157 193.663C355.549 193.142 355.873 192.146 356.671 192.082L361.175 191.721C361.511 191.694 361.804 191.481 361.934 191.17L363.669 186.998Z" fill="url(#paint4_linear_2918_1705)" shape-rendering="crispEdges"/>
</g>
<defs>
<filter id="filter0_d_2918_1705" x="366.602" y="158.141" width="29.1855" height="30.0693" filterUnits="userSpaceOnUse" color-interpolation-filters="sRGB">
<feFlood flood-opacity="0" result="BackgroundImageFix"/>
<feColorMatrix in="SourceAlpha" type="matrix" values="0 0 0 0 0 0 0 0 0 0 0 0 0 0 0 0 0 0 127 0" result="hardAlpha"/>
<feOffset dy="4"/>
<feGaussianBlur stdDeviation="2"/>
<feComposite in2="hardAlpha" operator="out"/>
<feColorMatrix type="matrix" values="0 0 0 0 0 0 0 0 0 0.1 0 0 0 0 1 0 0 0 0.45 0"/>
<feBlend mode="normal" in2="BackgroundImageFix" result="effect1_dropShadow_2918_1705"/>
<feBlend mode="normal" in="SourceGraphic" in2="effect1_dropShadow_2918_1705" result="shape"/>
</filter>
<filter id="filter1_d_2918_1705" x="370.572" y="206.791" width="19.3652" height="19.8379" filterUnits="userSpaceOnUse" color-interpolation-filters="sRGB">
<feFlood flood-opacity="0" result="BackgroundImageFix"/>
<feColorMatrix in="SourceAlpha" type="matrix" values="0 0 0 0 0 0 0 0 0 0 0 0 0 0 0 0 0 0 127 0" result="hardAlpha"/>
<feOffset dy="4"/>
<feGaussianBlur stdDeviation="2"/>
<feComposite in2="hardAlpha" operator="out"/>
<feColorMatrix type="matrix" values="0 0 0 0 0.435294 0 0 0 0 0.505569 0 0 0 0 0.87451 0 0 0 0.45 0"/>
<feBlend mode="normal" in2="BackgroundImageFix" result="effect1_dropShadow_2918_1705"/>
<feBlend mode="normal" in="SourceGraphic" in2="effect1_dropShadow_2918_1705" result="shape"/>
</filter>
<filter id="filter2_d_2918_1705" x="0" y="0" width="387" height="225" filterUnits="userSpaceOnUse" color-interpolation-filters="sRGB">
<feFlood flood-opacity="0" result="BackgroundImageFix"/>
<feColorMatrix in="SourceAlpha" type="matrix" values="0 0 0 0 0 0 0 0 0 0 0 0 0 0 0 0 0 0 127 0" result="hardAlpha"/>
<feOffset dy="4"/>
<feGaussianBlur stdDeviation="10"/>
<feComposite in2="hardAlpha" operator="out"/>
<feColorMatrix type="matrix" values="0 0 0 0 0 0 0 0 0 0 0 0 0 0 0 0 0 0 0.38 0"/>
<feBlend mode="normal" in2="BackgroundImageFix" result="effect1_dropShadow_2918_1705"/>
<feBlend mode="normal" in="SourceGraphic" in2="effect1_dropShadow_2918_1705" result="shape"/>
</filter>
<filter id="filter3_d_2918_1705" x="351.842" y="186.443" width="25.3164" height="24.5581" filterUnits="userSpaceOnUse" color-interpolation-filters="sRGB">
<feFlood flood-opacity="0" result="BackgroundImageFix"/>
<feColorMatrix in="SourceAlpha" type="matrix" values="0 0 0 0 0 0 0 0 0 0 0 0 0 0 0 0 0 0 127 0" result="hardAlpha"/>
<feOffset dy="4"/>
<feGaussianBlur stdDeviation="2"/>
<feComposite in2="hardAlpha" operator="out"/>
<feColorMatrix type="matrix" values="0 0 0 0 0.435294 0 0 0 0 0.531922 0 0 0 0 0.87451 0 0 0 0.45 0"/>
<feBlend mode="normal" in2="BackgroundImageFix" result="effect1_dropShadow_2918_1705"/>
<feBlend mode="normal" in="SourceGraphic" in2="effect1_dropShadow_2918_1705" result="shape"/>
</filter>
<linearGradient id="paint0_linear_2918_1705" x1="384.034" y1="156.801" x2="376.432" y2="181.665" gradientUnits="userSpaceOnUse">
<stop stop-color="#0094FF" stop-opacity="0.619608"/>
<stop offset="1" stop-color="#9E00FF"/>
</linearGradient>
<linearGradient id="paint1_linear_2918_1705" x1="381.788" y1="206.047" x2="377.695" y2="219.435" gradientUnits="userSpaceOnUse">
<stop stop-color="#0094FF" stop-opacity="0.619608"/>
<stop offset="1" stop-color="#9E00FF"/>
</linearGradient>
<linearGradient id="paint2_linear_2918_1705" x1="-9" y1="56" x2="356.5" y2="16" gradientUnits="userSpaceOnUse">
<stop stop-color="#0094FF"/>
<stop offset="1" stop-color="#9E00FF"/>
</linearGradient>
<linearGradient id="paint3_linear_2918_1705" x1="58" y1="68" x2="58" y2="93" gradientUnits="userSpaceOnUse">
<stop stop-color="#0094FF" stop-opacity="0.619608"/>
<stop offset="1" stop-color="#9E00FF"/>
</linearGradient>
<linearGradient id="paint4_linear_2918_1705" x1="364.5" y1="185" x2="364.5" y2="206" gradientUnits="userSpaceOnUse">
<stop stop-color="#0094FF" stop-opacity="0.619608"/>
<stop offset="1" stop-color="#9E00FF"/>
</linearGradient>
<clipPath id="clip0_2918_1705">
<rect x="20" y="16" width="347" height="185" rx="6" fill="white"/>
</clipPath>
</defs>
</svg>
