<svg width="387" height="73" viewBox="0 0 387 73" fill="none" xmlns="http://www.w3.org/2000/svg">
<path d="M94.9039 7.856C94.9039 8.324 95.0179 8.732 95.2459 9.08C95.4739 9.428 95.7499 9.722 96.0739 9.962C96.4099 10.19 96.8659 10.478 97.4419 10.826C98.0779 11.21 98.5639 11.528 98.8999 11.78C99.2479 12.032 99.5419 12.356 99.7819 12.752C100.034 13.136 100.16 13.598 100.16 14.138C100.16 14.714 100.016 15.236 99.7279 15.704C99.4399 16.172 99.0139 16.544 98.4499 16.82C97.8979 17.084 97.2319 17.216 96.4519 17.216C95.5279 17.216 94.6819 17.006 93.9139 16.586C93.8539 16.55 93.8119 16.508 93.7879 16.46C93.7759 16.412 93.7639 16.34 93.7519 16.244L93.5179 13.796C93.5059 13.748 93.5299 13.718 93.5899 13.706C93.6619 13.694 93.7039 13.712 93.7159 13.76C93.9079 14.624 94.2619 15.368 94.7779 15.992C95.3059 16.616 96.0019 16.928 96.8659 16.928C97.4659 16.928 97.9699 16.766 98.3779 16.442C98.7979 16.106 99.0079 15.578 99.0079 14.858C99.0079 14.318 98.8879 13.85 98.6479 13.454C98.4079 13.058 98.1139 12.734 97.7659 12.482C97.4299 12.218 96.9679 11.912 96.3799 11.564C95.8039 11.216 95.3479 10.916 95.0119 10.664C94.6879 10.412 94.4119 10.094 94.1839 9.71C93.9559 9.326 93.8419 8.876 93.8419 8.36C93.8419 7.76 93.9979 7.25 94.3099 6.83C94.6339 6.398 95.0479 6.08 95.5519 5.876C96.0679 5.66 96.6139 5.552 97.1899 5.552C97.8979 5.552 98.5999 5.696 99.2959 5.984C99.4759 6.044 99.5659 6.146 99.5659 6.29L99.6919 8.36C99.6919 8.408 99.6619 8.432 99.6019 8.432C99.5419 8.432 99.5059 8.408 99.4939 8.36C99.3979 7.736 99.1399 7.16 98.7199 6.632C98.2999 6.092 97.6939 5.822 96.9019 5.822C96.2299 5.822 95.7259 6.02 95.3899 6.416C95.0659 6.8 94.9039 7.28 94.9039 7.856ZM108.606 16.028C108.654 16.028 108.684 16.058 108.696 16.118C108.708 16.166 108.69 16.202 108.642 16.226L106.788 17.108C106.74 17.132 106.692 17.144 106.644 17.144C106.488 17.144 106.35 17.042 106.23 16.838C106.11 16.622 106.032 16.334 105.996 15.974L105.06 16.586C104.76 16.778 104.496 16.916 104.268 17C104.04 17.084 103.8 17.126 103.548 17.126C103.104 17.126 102.756 17.012 102.504 16.784C102.264 16.544 102.144 16.244 102.144 15.884C102.144 15.524 102.288 15.212 102.576 14.948C102.864 14.684 103.338 14.432 103.998 14.192L105.978 13.454V12.23C105.978 10.886 105.6 10.214 104.844 10.214C104.436 10.214 104.124 10.352 103.908 10.628C103.704 10.892 103.566 11.198 103.494 11.546C103.458 11.762 103.392 11.942 103.296 12.086C103.2 12.218 103.038 12.284 102.81 12.284C102.618 12.284 102.468 12.23 102.36 12.122C102.264 12.014 102.216 11.888 102.216 11.744C102.216 11.456 102.402 11.168 102.774 10.88C103.146 10.592 103.59 10.352 104.106 10.16C104.622 9.968 105.084 9.872 105.492 9.872C105.984 9.872 106.356 10.028 106.608 10.34C106.86 10.652 106.986 11.102 106.986 11.69V15.056C106.986 15.476 107.04 15.782 107.148 15.974C107.256 16.166 107.436 16.262 107.688 16.262C107.916 16.262 108.21 16.184 108.57 16.028H108.606ZM105.978 15.722V15.632V13.706L104.304 14.354C103.968 14.486 103.722 14.642 103.566 14.822C103.422 14.99 103.35 15.194 103.35 15.434C103.35 15.722 103.44 15.968 103.62 16.172C103.812 16.364 104.058 16.46 104.358 16.46C104.598 16.46 104.886 16.364 105.222 16.172L105.978 15.722ZM114.275 16.064C114.323 16.064 114.359 16.094 114.383 16.154C114.407 16.202 114.401 16.238 114.365 16.262C113.921 16.61 113.519 16.856 113.159 17C112.811 17.144 112.445 17.216 112.061 17.216C111.557 17.216 111.143 17.102 110.819 16.874C110.495 16.646 110.333 16.268 110.333 15.74V11.51C110.333 11.198 110.309 10.976 110.261 10.844C110.225 10.712 110.147 10.628 110.027 10.592C109.907 10.544 109.703 10.52 109.415 10.52C109.367 10.52 109.343 10.484 109.343 10.412C109.343 10.328 109.367 10.286 109.415 10.286C109.895 10.274 110.285 10.148 110.585 9.908C110.885 9.656 111.059 9.326 111.107 8.918C111.107 8.882 111.155 8.864 111.251 8.864C111.335 8.864 111.377 8.882 111.377 8.918V10.25C111.977 10.238 112.811 10.178 113.879 10.07C113.903 10.07 113.927 10.118 113.951 10.214C113.987 10.298 114.005 10.394 114.005 10.502C114.005 10.598 113.981 10.7 113.933 10.808C113.897 10.904 113.855 10.946 113.807 10.934C113.147 10.766 112.337 10.67 111.377 10.646V15.128C111.377 15.62 111.497 15.986 111.737 16.226C111.989 16.466 112.343 16.586 112.799 16.586C113.327 16.586 113.807 16.418 114.239 16.082L114.275 16.064ZM117.225 7.784C116.973 7.784 116.775 7.718 116.631 7.586C116.499 7.454 116.433 7.268 116.433 7.028C116.433 6.788 116.499 6.602 116.631 6.47C116.775 6.338 116.973 6.272 117.225 6.272C117.465 6.272 117.651 6.338 117.783 6.47C117.915 6.602 117.981 6.788 117.981 7.028C117.981 7.268 117.915 7.454 117.783 7.586C117.651 7.718 117.465 7.784 117.225 7.784ZM115.713 17C115.689 17 115.677 16.964 115.677 16.892C115.677 16.82 115.689 16.784 115.713 16.784C116.037 16.784 116.277 16.754 116.433 16.694C116.601 16.622 116.715 16.502 116.775 16.334C116.835 16.154 116.865 15.89 116.865 15.542V12.176C116.865 11.744 116.817 11.432 116.721 11.24C116.637 11.048 116.487 10.952 116.271 10.952C116.055 10.952 115.785 11.036 115.461 11.204H115.443C115.395 11.204 115.359 11.174 115.335 11.114C115.311 11.054 115.317 11.012 115.353 10.988L117.693 9.908L117.765 9.89C117.789 9.89 117.819 9.908 117.855 9.944C117.891 9.968 117.909 9.998 117.909 10.034C117.909 10.118 117.903 10.358 117.891 10.754C117.879 11.15 117.873 11.618 117.873 12.158V15.542C117.873 15.902 117.903 16.166 117.963 16.334C118.023 16.502 118.131 16.622 118.287 16.694C118.443 16.754 118.683 16.784 119.007 16.784C119.043 16.784 119.061 16.82 119.061 16.892C119.061 16.964 119.043 17 119.007 17C118.731 17 118.509 16.994 118.341 16.982L117.369 16.964L116.397 16.982C116.229 16.994 116.001 17 115.713 17ZM121.499 11.15C121.499 11.57 121.637 11.906 121.913 12.158C122.189 12.398 122.591 12.656 123.119 12.932C123.539 13.148 123.863 13.334 124.091 13.49C124.331 13.646 124.535 13.85 124.703 14.102C124.871 14.354 124.955 14.66 124.955 15.02C124.955 15.632 124.727 16.148 124.271 16.568C123.815 16.988 123.197 17.198 122.417 17.198C121.781 17.198 121.205 17.018 120.689 16.658C120.617 16.61 120.581 16.538 120.581 16.442L120.545 15.038C120.545 15.002 120.575 14.984 120.635 14.984C120.707 14.972 120.749 14.984 120.761 15.02C120.989 15.62 121.283 16.076 121.643 16.388C122.015 16.7 122.441 16.856 122.921 16.856C123.317 16.856 123.617 16.76 123.821 16.568C124.025 16.376 124.115 16.094 124.091 15.722C124.079 15.266 123.935 14.918 123.659 14.678C123.395 14.426 122.993 14.168 122.453 13.904C122.057 13.712 121.739 13.538 121.499 13.382C121.271 13.226 121.073 13.022 120.905 12.77C120.749 12.518 120.671 12.206 120.671 11.834C120.671 11.186 120.911 10.694 121.391 10.358C121.883 10.01 122.459 9.836 123.119 9.836C123.599 9.836 124.037 9.926 124.433 10.106C124.505 10.13 124.547 10.16 124.559 10.196C124.583 10.22 124.595 10.256 124.595 10.304C124.595 10.544 124.589 10.73 124.577 10.862L124.559 11.618C124.559 11.642 124.523 11.654 124.451 11.654C124.379 11.654 124.343 11.642 124.343 11.618C124.343 11.366 124.247 11.132 124.055 10.916C123.863 10.688 123.623 10.508 123.335 10.376C123.047 10.244 122.759 10.178 122.471 10.178C122.171 10.178 121.931 10.262 121.751 10.43C121.583 10.586 121.499 10.826 121.499 11.15ZM131.235 4.238C130.443 4.238 129.807 4.64 129.327 5.444C128.847 6.248 128.607 7.466 128.607 9.098V10.25C129.135 10.238 129.903 10.178 130.911 10.07C130.947 10.07 130.977 10.118 131.001 10.214C131.025 10.298 131.037 10.394 131.037 10.502C131.037 10.61 131.013 10.724 130.965 10.844C130.917 10.952 130.881 10.994 130.857 10.97C130.077 10.742 129.327 10.61 128.607 10.574V15.542C128.607 15.914 128.649 16.184 128.733 16.352C128.817 16.52 128.979 16.634 129.219 16.694C129.459 16.754 129.843 16.784 130.371 16.784C130.407 16.784 130.425 16.82 130.425 16.892C130.425 16.964 130.407 17 130.371 17L129.219 16.982C128.967 16.97 128.583 16.964 128.067 16.964L127.059 16.982C126.891 16.994 126.651 17 126.339 17C126.303 17 126.285 16.964 126.285 16.892C126.285 16.82 126.303 16.784 126.339 16.784C126.699 16.784 126.963 16.754 127.131 16.694C127.299 16.622 127.413 16.502 127.473 16.334C127.545 16.166 127.581 15.902 127.581 15.542V11.492C127.581 11.18 127.551 10.964 127.491 10.844C127.431 10.712 127.311 10.628 127.131 10.592C126.963 10.544 126.675 10.52 126.267 10.52C126.231 10.52 126.213 10.484 126.213 10.412C126.213 10.328 126.231 10.286 126.267 10.286C126.759 10.286 127.089 10.232 127.257 10.124C127.437 10.004 127.533 9.788 127.545 9.476C127.677 5.78 129.105 3.932 131.829 3.932C132.489 3.932 133.029 4.07 133.449 4.346C133.881 4.61 134.097 4.922 134.097 5.282C134.097 5.462 134.049 5.6 133.953 5.696C133.857 5.792 133.725 5.84 133.557 5.84C133.377 5.84 133.233 5.786 133.125 5.678C133.017 5.57 132.909 5.414 132.801 5.21C132.609 4.898 132.405 4.658 132.189 4.49C131.985 4.322 131.667 4.238 131.235 4.238ZM135.339 16.784C135.375 16.784 135.393 16.82 135.393 16.892C135.393 16.964 135.375 17 135.339 17C135.063 17 134.841 16.994 134.673 16.982L133.701 16.964L132.729 16.982C132.561 16.994 132.339 17 132.063 17C132.027 17 132.009 16.964 132.009 16.892C132.009 16.82 132.027 16.784 132.063 16.784C132.387 16.784 132.627 16.754 132.783 16.694C132.939 16.622 133.047 16.502 133.107 16.334C133.167 16.154 133.197 15.89 133.197 15.542V12.176C133.197 11.744 133.155 11.432 133.071 11.24C132.987 11.048 132.837 10.952 132.621 10.952C132.441 10.952 132.165 11.036 131.793 11.204H131.775C131.715 11.204 131.673 11.174 131.649 11.114C131.637 11.054 131.655 11.012 131.703 10.988L134.043 9.89C134.055 9.878 134.073 9.872 134.097 9.872C134.133 9.872 134.163 9.89 134.187 9.926C134.223 9.962 134.241 9.998 134.241 10.034C134.241 10.118 134.235 10.358 134.223 10.754C134.211 11.15 134.205 11.618 134.205 12.158V15.542C134.205 15.89 134.235 16.154 134.295 16.334C134.355 16.502 134.463 16.622 134.619 16.694C134.775 16.754 135.015 16.784 135.339 16.784ZM142.455 15.992C142.491 15.992 142.521 16.016 142.545 16.064C142.581 16.1 142.587 16.136 142.563 16.172C141.771 16.868 140.895 17.216 139.935 17.216C139.239 17.216 138.645 17.054 138.153 16.73C137.661 16.406 137.283 15.98 137.019 15.452C136.767 14.924 136.641 14.36 136.641 13.76C136.641 13.052 136.809 12.404 137.145 11.816C137.481 11.216 137.937 10.748 138.513 10.412C139.101 10.064 139.743 9.89 140.439 9.89C141.111 9.89 141.627 10.07 141.987 10.43C142.347 10.79 142.527 11.294 142.527 11.942C142.527 12.11 142.509 12.23 142.473 12.302C142.449 12.374 142.401 12.41 142.329 12.41L137.865 12.428C137.841 12.692 137.829 12.908 137.829 13.076C137.829 14.12 138.075 14.966 138.567 15.614C139.059 16.262 139.749 16.586 140.637 16.586C140.997 16.586 141.303 16.538 141.555 16.442C141.819 16.346 142.113 16.196 142.437 15.992H142.455ZM139.845 10.25C139.329 10.25 138.903 10.424 138.567 10.772C138.231 11.108 138.009 11.582 137.901 12.194L141.321 12.122C141.321 11.51 141.189 11.048 140.925 10.736C140.661 10.412 140.301 10.25 139.845 10.25ZM152.343 15.974C152.391 15.974 152.421 16.004 152.433 16.064C152.457 16.124 152.451 16.166 152.415 16.19L150.435 17.126C150.363 17.15 150.315 17.162 150.291 17.162C150.135 17.162 150.003 17.03 149.895 16.766C149.787 16.502 149.727 16.136 149.715 15.668C149.271 16.136 148.803 16.514 148.311 16.802C147.831 17.09 147.291 17.234 146.691 17.234C146.187 17.234 145.719 17.09 145.287 16.802C144.867 16.514 144.525 16.112 144.261 15.596C144.009 15.068 143.883 14.468 143.883 13.796C143.883 12.944 144.093 12.218 144.513 11.618C144.933 11.018 145.461 10.568 146.097 10.268C146.733 9.968 147.363 9.818 147.987 9.818C148.623 9.818 149.199 9.974 149.715 10.286V6.254C149.715 5.822 149.667 5.51 149.571 5.318C149.487 5.126 149.337 5.03 149.121 5.03C148.965 5.03 148.689 5.114 148.293 5.282H148.257C148.209 5.282 148.173 5.258 148.149 5.21C148.137 5.15 148.149 5.108 148.185 5.084L150.471 3.968C150.495 3.956 150.525 3.95 150.561 3.95C150.585 3.95 150.615 3.968 150.651 4.004C150.699 4.028 150.723 4.058 150.723 4.094V15.02C150.723 15.452 150.771 15.764 150.867 15.956C150.975 16.148 151.143 16.244 151.371 16.244C151.719 16.244 152.031 16.16 152.307 15.992L152.343 15.974ZM147.393 16.586C147.825 16.586 148.227 16.484 148.599 16.28C148.971 16.064 149.343 15.764 149.715 15.38V11.42C149.427 11.024 149.109 10.718 148.761 10.502C148.413 10.286 147.993 10.178 147.501 10.178C146.745 10.178 146.145 10.448 145.701 10.988C145.269 11.516 145.053 12.272 145.053 13.256C145.053 13.916 145.155 14.498 145.359 15.002C145.563 15.506 145.839 15.896 146.187 16.172C146.547 16.448 146.949 16.586 147.393 16.586ZM164.063 5.552C164.819 5.552 165.455 5.606 165.971 5.714C166.487 5.822 167.003 6.008 167.519 6.272C167.603 6.32 167.651 6.362 167.663 6.398C167.675 6.434 167.693 6.524 167.717 6.668L167.933 8.81C167.933 8.846 167.897 8.87 167.825 8.882C167.765 8.882 167.729 8.864 167.717 8.828C167.165 6.824 165.929 5.822 164.009 5.822C163.001 5.822 162.113 6.044 161.345 6.488C160.577 6.932 159.983 7.568 159.563 8.396C159.143 9.212 158.933 10.166 158.933 11.258C158.933 12.302 159.161 13.262 159.617 14.138C160.085 15.002 160.709 15.686 161.489 16.19C162.281 16.694 163.139 16.946 164.063 16.946C165.047 16.946 165.845 16.706 166.457 16.226C167.069 15.746 167.537 15.014 167.861 14.03C167.861 14.006 167.891 13.994 167.951 13.994C168.035 13.994 168.077 14.012 168.077 14.048L167.897 16.028C167.885 16.172 167.867 16.262 167.843 16.298C167.819 16.334 167.771 16.376 167.699 16.424C167.075 16.724 166.487 16.934 165.935 17.054C165.395 17.174 164.771 17.234 164.063 17.234C162.803 17.234 161.675 16.988 160.679 16.496C159.695 15.992 158.927 15.29 158.375 14.39C157.823 13.49 157.547 12.458 157.547 11.294C157.547 10.166 157.829 9.17 158.393 8.306C158.957 7.43 159.731 6.752 160.715 6.272C161.711 5.792 162.827 5.552 164.063 5.552ZM169.725 17C169.689 17 169.671 16.964 169.671 16.892C169.671 16.82 169.689 16.784 169.725 16.784C170.049 16.784 170.289 16.754 170.445 16.694C170.601 16.622 170.709 16.502 170.769 16.334C170.829 16.154 170.859 15.89 170.859 15.542V6.236C170.859 5.804 170.817 5.492 170.733 5.3C170.649 5.108 170.499 5.012 170.283 5.012C170.103 5.012 169.827 5.096 169.455 5.264H169.419C169.383 5.264 169.353 5.234 169.329 5.174C169.317 5.114 169.329 5.078 169.365 5.066L171.669 3.968C171.693 3.956 171.723 3.95 171.759 3.95C171.783 3.95 171.813 3.968 171.849 4.004C171.897 4.028 171.921 4.058 171.921 4.094V15.542C171.921 15.89 171.945 16.148 171.993 16.316C172.053 16.484 172.161 16.604 172.317 16.676C172.473 16.748 172.713 16.784 173.037 16.784C173.073 16.784 173.091 16.82 173.091 16.892C173.091 16.964 173.073 17 173.037 17C172.773 17 172.557 16.994 172.389 16.982L171.381 16.964L170.409 16.982C170.241 16.994 170.013 17 169.725 17ZM176.112 7.784C175.86 7.784 175.662 7.718 175.518 7.586C175.386 7.454 175.32 7.268 175.32 7.028C175.32 6.788 175.386 6.602 175.518 6.47C175.662 6.338 175.86 6.272 176.112 6.272C176.352 6.272 176.538 6.338 176.67 6.47C176.802 6.602 176.868 6.788 176.868 7.028C176.868 7.268 176.802 7.454 176.67 7.586C176.538 7.718 176.352 7.784 176.112 7.784ZM174.6 17C174.576 17 174.564 16.964 174.564 16.892C174.564 16.82 174.576 16.784 174.6 16.784C174.924 16.784 175.164 16.754 175.32 16.694C175.488 16.622 175.602 16.502 175.662 16.334C175.722 16.154 175.752 15.89 175.752 15.542V12.176C175.752 11.744 175.704 11.432 175.608 11.24C175.524 11.048 175.374 10.952 175.158 10.952C174.942 10.952 174.672 11.036 174.348 11.204H174.33C174.282 11.204 174.246 11.174 174.222 11.114C174.198 11.054 174.204 11.012 174.24 10.988L176.58 9.908L176.652 9.89C176.676 9.89 176.706 9.908 176.742 9.944C176.778 9.968 176.796 9.998 176.796 10.034C176.796 10.118 176.79 10.358 176.778 10.754C176.766 11.15 176.76 11.618 176.76 12.158V15.542C176.76 15.902 176.79 16.166 176.85 16.334C176.91 16.502 177.018 16.622 177.174 16.694C177.33 16.754 177.57 16.784 177.894 16.784C177.93 16.784 177.948 16.82 177.948 16.892C177.948 16.964 177.93 17 177.894 17C177.618 17 177.396 16.994 177.228 16.982L176.256 16.964L175.284 16.982C175.116 16.994 174.888 17 174.6 17ZM185.029 15.992C185.065 15.992 185.095 16.016 185.119 16.064C185.155 16.1 185.161 16.136 185.137 16.172C184.345 16.868 183.469 17.216 182.509 17.216C181.813 17.216 181.219 17.054 180.727 16.73C180.235 16.406 179.857 15.98 179.593 15.452C179.341 14.924 179.215 14.36 179.215 13.76C179.215 13.052 179.383 12.404 179.719 11.816C180.055 11.216 180.511 10.748 181.087 10.412C181.675 10.064 182.317 9.89 183.013 9.89C183.685 9.89 184.201 10.07 184.561 10.43C184.921 10.79 185.101 11.294 185.101 11.942C185.101 12.11 185.083 12.23 185.047 12.302C185.023 12.374 184.975 12.41 184.903 12.41L180.439 12.428C180.415 12.692 180.403 12.908 180.403 13.076C180.403 14.12 180.649 14.966 181.141 15.614C181.633 16.262 182.323 16.586 183.211 16.586C183.571 16.586 183.877 16.538 184.129 16.442C184.393 16.346 184.687 16.196 185.011 15.992H185.029ZM182.419 10.25C181.903 10.25 181.477 10.424 181.141 10.772C180.805 11.108 180.583 11.582 180.475 12.194L183.895 12.122C183.895 11.51 183.763 11.048 183.499 10.736C183.235 10.412 182.875 10.25 182.419 10.25ZM194.825 16.784C194.861 16.784 194.879 16.82 194.879 16.892C194.879 16.964 194.861 17 194.825 17C194.549 17 194.333 16.994 194.177 16.982L193.205 16.964L192.215 16.982C192.059 16.994 191.843 17 191.567 17C191.531 17 191.513 16.964 191.513 16.892C191.513 16.82 191.531 16.784 191.567 16.784C191.891 16.784 192.131 16.754 192.287 16.694C192.443 16.622 192.545 16.502 192.593 16.334C192.653 16.166 192.683 15.902 192.683 15.542V12.626C192.683 11.918 192.545 11.396 192.269 11.06C192.005 10.724 191.591 10.556 191.027 10.556C190.655 10.556 190.277 10.658 189.893 10.862C189.521 11.054 189.179 11.324 188.867 11.672V15.542C188.867 15.902 188.891 16.166 188.939 16.334C188.999 16.502 189.107 16.622 189.263 16.694C189.419 16.754 189.659 16.784 189.983 16.784C190.019 16.784 190.037 16.82 190.037 16.892C190.037 16.964 190.019 17 189.983 17C189.707 17 189.491 16.994 189.335 16.982L188.363 16.964L187.373 16.982C187.217 16.994 187.001 17 186.725 17C186.689 17 186.671 16.964 186.671 16.892C186.671 16.82 186.689 16.784 186.725 16.784C187.049 16.784 187.289 16.754 187.445 16.694C187.601 16.622 187.703 16.502 187.751 16.334C187.811 16.166 187.841 15.902 187.841 15.542V11.978C187.841 11.57 187.793 11.276 187.697 11.096C187.601 10.916 187.439 10.826 187.211 10.826C187.019 10.826 186.695 10.916 186.239 11.096H186.203C186.155 11.096 186.119 11.072 186.095 11.024C186.083 10.964 186.101 10.922 186.149 10.898L188.237 9.908L188.345 9.89C188.453 9.89 188.567 10.028 188.687 10.304C188.807 10.58 188.867 10.934 188.867 11.366C189.323 10.838 189.773 10.448 190.217 10.196C190.673 9.944 191.141 9.818 191.621 9.818C192.293 9.818 192.809 10.004 193.169 10.376C193.529 10.748 193.709 11.294 193.709 12.014V15.542C193.709 15.902 193.733 16.166 193.781 16.334C193.841 16.502 193.949 16.622 194.105 16.694C194.261 16.754 194.501 16.784 194.825 16.784ZM200.812 16.064C200.86 16.064 200.896 16.094 200.92 16.154C200.944 16.202 200.938 16.238 200.902 16.262C200.458 16.61 200.056 16.856 199.696 17C199.348 17.144 198.982 17.216 198.598 17.216C198.094 17.216 197.68 17.102 197.356 16.874C197.032 16.646 196.87 16.268 196.87 15.74V11.51C196.87 11.198 196.846 10.976 196.798 10.844C196.762 10.712 196.684 10.628 196.564 10.592C196.444 10.544 196.24 10.52 195.952 10.52C195.904 10.52 195.88 10.484 195.88 10.412C195.88 10.328 195.904 10.286 195.952 10.286C196.432 10.274 196.822 10.148 197.122 9.908C197.422 9.656 197.596 9.326 197.644 8.918C197.644 8.882 197.692 8.864 197.788 8.864C197.872 8.864 197.914 8.882 197.914 8.918V10.25C198.514 10.238 199.348 10.178 200.416 10.07C200.44 10.07 200.464 10.118 200.488 10.214C200.524 10.298 200.542 10.394 200.542 10.502C200.542 10.598 200.518 10.7 200.47 10.808C200.434 10.904 200.392 10.946 200.344 10.934C199.684 10.766 198.874 10.67 197.914 10.646V15.128C197.914 15.62 198.034 15.986 198.274 16.226C198.526 16.466 198.88 16.586 199.336 16.586C199.864 16.586 200.344 16.418 200.776 16.082L200.812 16.064ZM208.917 6.074C208.161 6.074 207.591 6.266 207.207 6.65C206.835 7.034 206.565 7.688 206.397 8.612C206.397 8.636 206.361 8.648 206.289 8.648C206.229 8.648 206.199 8.636 206.199 8.612C206.247 8.18 206.301 7.616 206.361 6.92C206.421 6.224 206.451 5.702 206.451 5.354C206.451 5.294 206.481 5.264 206.541 5.264C206.613 5.264 206.649 5.294 206.649 5.354C206.649 5.618 206.973 5.75 207.621 5.75C208.641 5.786 209.847 5.804 211.239 5.804C211.947 5.804 212.697 5.792 213.489 5.768L214.713 5.75C215.145 5.75 215.463 5.72 215.667 5.66C215.883 5.6 216.021 5.48 216.081 5.3C216.093 5.252 216.129 5.228 216.189 5.228C216.249 5.228 216.279 5.252 216.279 5.3C216.243 5.648 216.207 6.176 216.171 6.884C216.135 7.592 216.117 8.168 216.117 8.612C216.117 8.636 216.081 8.648 216.009 8.648C215.937 8.648 215.901 8.636 215.901 8.612C215.865 7.676 215.673 7.022 215.325 6.65C214.977 6.266 214.401 6.074 213.597 6.074C213.057 6.074 212.673 6.098 212.445 6.146C212.217 6.194 212.061 6.296 211.977 6.452C211.893 6.608 211.851 6.872 211.851 7.244V15.542C211.851 15.914 211.893 16.184 211.977 16.352C212.061 16.52 212.223 16.634 212.463 16.694C212.703 16.754 213.081 16.784 213.597 16.784C213.633 16.784 213.651 16.82 213.651 16.892C213.651 16.964 213.633 17 213.597 17C213.201 17 212.883 16.994 212.643 16.982L211.239 16.964L209.889 16.982C209.649 16.994 209.319 17 208.899 17C208.875 17 208.863 16.964 208.863 16.892C208.863 16.82 208.875 16.784 208.899 16.784C209.415 16.784 209.793 16.754 210.033 16.694C210.273 16.634 210.435 16.52 210.519 16.352C210.615 16.172 210.663 15.902 210.663 15.542V7.208C210.663 6.836 210.621 6.578 210.537 6.434C210.453 6.278 210.297 6.182 210.069 6.146C209.841 6.098 209.457 6.074 208.917 6.074ZM221.908 15.992C221.944 15.992 221.974 16.016 221.998 16.064C222.034 16.1 222.04 16.136 222.016 16.172C221.224 16.868 220.348 17.216 219.388 17.216C218.692 17.216 218.098 17.054 217.606 16.73C217.114 16.406 216.736 15.98 216.472 15.452C216.22 14.924 216.094 14.36 216.094 13.76C216.094 13.052 216.262 12.404 216.598 11.816C216.934 11.216 217.39 10.748 217.966 10.412C218.554 10.064 219.196 9.89 219.892 9.89C220.564 9.89 221.08 10.07 221.44 10.43C221.8 10.79 221.98 11.294 221.98 11.942C221.98 12.11 221.962 12.23 221.926 12.302C221.902 12.374 221.854 12.41 221.782 12.41L217.318 12.428C217.294 12.692 217.282 12.908 217.282 13.076C217.282 14.12 217.528 14.966 218.02 15.614C218.512 16.262 219.202 16.586 220.09 16.586C220.45 16.586 220.756 16.538 221.008 16.442C221.272 16.346 221.566 16.196 221.89 15.992H221.908ZM219.298 10.25C218.782 10.25 218.356 10.424 218.02 10.772C217.684 11.108 217.462 11.582 217.354 12.194L220.774 12.122C220.774 11.51 220.642 11.048 220.378 10.736C220.114 10.412 219.754 10.25 219.298 10.25ZM224.612 11.15C224.612 11.57 224.75 11.906 225.026 12.158C225.302 12.398 225.704 12.656 226.232 12.932C226.652 13.148 226.976 13.334 227.204 13.49C227.444 13.646 227.648 13.85 227.816 14.102C227.984 14.354 228.068 14.66 228.068 15.02C228.068 15.632 227.84 16.148 227.384 16.568C226.928 16.988 226.31 17.198 225.53 17.198C224.894 17.198 224.318 17.018 223.802 16.658C223.73 16.61 223.694 16.538 223.694 16.442L223.658 15.038C223.658 15.002 223.688 14.984 223.748 14.984C223.82 14.972 223.862 14.984 223.874 15.02C224.102 15.62 224.396 16.076 224.756 16.388C225.128 16.7 225.554 16.856 226.034 16.856C226.43 16.856 226.73 16.76 226.934 16.568C227.138 16.376 227.228 16.094 227.204 15.722C227.192 15.266 227.048 14.918 226.772 14.678C226.508 14.426 226.106 14.168 225.566 13.904C225.17 13.712 224.852 13.538 224.612 13.382C224.384 13.226 224.186 13.022 224.018 12.77C223.862 12.518 223.784 12.206 223.784 11.834C223.784 11.186 224.024 10.694 224.504 10.358C224.996 10.01 225.572 9.836 226.232 9.836C226.712 9.836 227.15 9.926 227.546 10.106C227.618 10.13 227.66 10.16 227.672 10.196C227.696 10.22 227.708 10.256 227.708 10.304C227.708 10.544 227.702 10.73 227.69 10.862L227.672 11.618C227.672 11.642 227.636 11.654 227.564 11.654C227.492 11.654 227.456 11.642 227.456 11.618C227.456 11.366 227.36 11.132 227.168 10.916C226.976 10.688 226.736 10.508 226.448 10.376C226.16 10.244 225.872 10.178 225.584 10.178C225.284 10.178 225.044 10.262 224.864 10.43C224.696 10.586 224.612 10.826 224.612 11.15ZM234.474 16.064C234.522 16.064 234.558 16.094 234.582 16.154C234.606 16.202 234.6 16.238 234.564 16.262C234.12 16.61 233.718 16.856 233.358 17C233.01 17.144 232.644 17.216 232.26 17.216C231.756 17.216 231.342 17.102 231.018 16.874C230.694 16.646 230.532 16.268 230.532 15.74V11.51C230.532 11.198 230.508 10.976 230.46 10.844C230.424 10.712 230.346 10.628 230.226 10.592C230.106 10.544 229.902 10.52 229.614 10.52C229.566 10.52 229.542 10.484 229.542 10.412C229.542 10.328 229.566 10.286 229.614 10.286C230.094 10.274 230.484 10.148 230.784 9.908C231.084 9.656 231.258 9.326 231.306 8.918C231.306 8.882 231.354 8.864 231.45 8.864C231.534 8.864 231.576 8.882 231.576 8.918V10.25C232.176 10.238 233.01 10.178 234.078 10.07C234.102 10.07 234.126 10.118 234.15 10.214C234.186 10.298 234.204 10.394 234.204 10.502C234.204 10.598 234.18 10.7 234.132 10.808C234.096 10.904 234.054 10.946 234.006 10.934C233.346 10.766 232.536 10.67 231.576 10.646V15.128C231.576 15.62 231.696 15.986 231.936 16.226C232.188 16.466 232.542 16.586 232.998 16.586C233.526 16.586 234.006 16.418 234.438 16.082L234.474 16.064ZM237.424 7.784C237.172 7.784 236.974 7.718 236.83 7.586C236.698 7.454 236.632 7.268 236.632 7.028C236.632 6.788 236.698 6.602 236.83 6.47C236.974 6.338 237.172 6.272 237.424 6.272C237.664 6.272 237.85 6.338 237.982 6.47C238.114 6.602 238.18 6.788 238.18 7.028C238.18 7.268 238.114 7.454 237.982 7.586C237.85 7.718 237.664 7.784 237.424 7.784ZM235.912 17C235.888 17 235.876 16.964 235.876 16.892C235.876 16.82 235.888 16.784 235.912 16.784C236.236 16.784 236.476 16.754 236.632 16.694C236.8 16.622 236.914 16.502 236.974 16.334C237.034 16.154 237.064 15.89 237.064 15.542V12.176C237.064 11.744 237.016 11.432 236.92 11.24C236.836 11.048 236.686 10.952 236.47 10.952C236.254 10.952 235.984 11.036 235.66 11.204H235.642C235.594 11.204 235.558 11.174 235.534 11.114C235.51 11.054 235.516 11.012 235.552 10.988L237.892 9.908L237.964 9.89C237.988 9.89 238.018 9.908 238.054 9.944C238.09 9.968 238.108 9.998 238.108 10.034C238.108 10.118 238.102 10.358 238.09 10.754C238.078 11.15 238.072 11.618 238.072 12.158V15.542C238.072 15.902 238.102 16.166 238.162 16.334C238.222 16.502 238.33 16.622 238.486 16.694C238.642 16.754 238.882 16.784 239.206 16.784C239.242 16.784 239.26 16.82 239.26 16.892C239.26 16.964 239.242 17 239.206 17C238.93 17 238.708 16.994 238.54 16.982L237.568 16.964L236.596 16.982C236.428 16.994 236.2 17 235.912 17ZM253.236 16.784C253.284 16.784 253.308 16.82 253.308 16.892C253.308 16.964 253.284 17 253.236 17C252.96 17 252.738 16.994 252.57 16.982L251.598 16.964L250.626 16.982C250.458 16.994 250.236 17 249.96 17C249.924 17 249.906 16.964 249.906 16.892C249.906 16.82 249.924 16.784 249.96 16.784C250.284 16.784 250.524 16.754 250.68 16.694C250.836 16.622 250.944 16.502 251.004 16.334C251.064 16.154 251.094 15.89 251.094 15.542V12.68C251.094 11.972 250.968 11.45 250.716 11.114C250.464 10.766 250.074 10.592 249.546 10.592C249.186 10.592 248.82 10.694 248.448 10.898C248.088 11.09 247.752 11.366 247.44 11.726C247.452 11.786 247.458 11.882 247.458 12.014V15.542C247.458 15.902 247.488 16.166 247.548 16.334C247.608 16.502 247.716 16.622 247.872 16.694C248.028 16.754 248.268 16.784 248.592 16.784C248.628 16.784 248.646 16.82 248.646 16.892C248.646 16.964 248.628 17 248.592 17C248.316 17 248.094 16.994 247.926 16.982L246.954 16.964L245.964 16.982C245.808 16.994 245.592 17 245.316 17C245.28 17 245.262 16.964 245.262 16.892C245.262 16.82 245.28 16.784 245.316 16.784C245.64 16.784 245.88 16.754 246.036 16.694C246.192 16.622 246.294 16.502 246.342 16.334C246.402 16.166 246.432 15.902 246.432 15.542V12.68C246.432 11.972 246.306 11.45 246.054 11.114C245.802 10.766 245.418 10.592 244.902 10.592C244.542 10.592 244.182 10.688 243.822 10.88C243.462 11.072 243.132 11.342 242.832 11.69V15.542C242.832 15.902 242.856 16.166 242.904 16.334C242.964 16.502 243.072 16.622 243.228 16.694C243.384 16.754 243.624 16.784 243.948 16.784C243.984 16.784 244.002 16.82 244.002 16.892C244.002 16.964 243.984 17 243.948 17C243.672 17 243.456 16.994 243.3 16.982L242.328 16.964L241.338 16.982C241.182 16.994 240.966 17 240.69 17C240.654 17 240.636 16.964 240.636 16.892C240.636 16.82 240.654 16.784 240.69 16.784C241.014 16.784 241.254 16.754 241.41 16.694C241.566 16.622 241.668 16.502 241.716 16.334C241.776 16.166 241.806 15.902 241.806 15.542V11.978C241.806 11.57 241.758 11.276 241.662 11.096C241.566 10.916 241.404 10.826 241.176 10.826C240.984 10.826 240.66 10.916 240.204 11.096H240.168C240.12 11.096 240.084 11.072 240.06 11.024C240.048 10.964 240.066 10.922 240.114 10.898L242.202 9.908L242.31 9.89C242.418 9.89 242.532 10.028 242.652 10.304C242.772 10.58 242.832 10.934 242.832 11.366V11.384C243.264 10.856 243.696 10.472 244.128 10.232C244.56 9.992 245.01 9.872 245.478 9.872C246.018 9.872 246.456 10.004 246.792 10.268C247.128 10.532 247.338 10.928 247.422 11.456C247.866 10.916 248.31 10.52 248.754 10.268C249.198 10.004 249.66 9.872 250.14 9.872C250.776 9.872 251.262 10.058 251.598 10.43C251.946 10.79 252.12 11.33 252.12 12.05V15.542C252.12 15.902 252.144 16.166 252.192 16.334C252.252 16.502 252.36 16.622 252.516 16.694C252.672 16.754 252.912 16.784 253.236 16.784ZM257.766 17.234C257.07 17.234 256.452 17.066 255.912 16.73C255.384 16.382 254.976 15.92 254.688 15.344C254.4 14.756 254.256 14.12 254.256 13.436C254.256 12.656 254.442 11.996 254.814 11.456C255.198 10.904 255.684 10.496 256.272 10.232C256.872 9.956 257.478 9.818 258.09 9.818C258.798 9.818 259.416 9.992 259.944 10.34C260.472 10.688 260.874 11.15 261.15 11.726C261.438 12.29 261.582 12.89 261.582 13.526C261.582 14.27 261.408 14.924 261.06 15.488C260.712 16.04 260.244 16.472 259.656 16.784C259.08 17.084 258.45 17.234 257.766 17.234ZM258.288 16.892C258.948 16.892 259.458 16.658 259.818 16.19C260.178 15.722 260.358 15.002 260.358 14.03C260.358 13.286 260.232 12.62 259.98 12.032C259.74 11.444 259.404 10.988 258.972 10.664C258.54 10.328 258.048 10.16 257.496 10.16C256.848 10.16 256.344 10.394 255.984 10.862C255.636 11.33 255.462 12.002 255.462 12.878C255.462 13.61 255.582 14.282 255.822 14.894C256.062 15.506 256.398 15.992 256.83 16.352C257.262 16.712 257.748 16.892 258.288 16.892ZM271.132 16.784C271.168 16.784 271.186 16.82 271.186 16.892C271.186 16.964 271.168 17 271.132 17C270.856 17 270.64 16.994 270.484 16.982L269.512 16.964L268.522 16.982C268.366 16.994 268.15 17 267.874 17C267.838 17 267.82 16.964 267.82 16.892C267.82 16.82 267.838 16.784 267.874 16.784C268.198 16.784 268.438 16.754 268.594 16.694C268.75 16.622 268.852 16.502 268.9 16.334C268.96 16.166 268.99 15.902 268.99 15.542V12.626C268.99 11.918 268.852 11.396 268.576 11.06C268.312 10.724 267.898 10.556 267.334 10.556C266.962 10.556 266.584 10.658 266.2 10.862C265.828 11.054 265.486 11.324 265.174 11.672V15.542C265.174 15.902 265.198 16.166 265.246 16.334C265.306 16.502 265.414 16.622 265.57 16.694C265.726 16.754 265.966 16.784 266.29 16.784C266.326 16.784 266.344 16.82 266.344 16.892C266.344 16.964 266.326 17 266.29 17C266.014 17 265.798 16.994 265.642 16.982L264.67 16.964L263.68 16.982C263.524 16.994 263.308 17 263.032 17C262.996 17 262.978 16.964 262.978 16.892C262.978 16.82 262.996 16.784 263.032 16.784C263.356 16.784 263.596 16.754 263.752 16.694C263.908 16.622 264.01 16.502 264.058 16.334C264.118 16.166 264.148 15.902 264.148 15.542V11.978C264.148 11.57 264.1 11.276 264.004 11.096C263.908 10.916 263.746 10.826 263.518 10.826C263.326 10.826 263.002 10.916 262.546 11.096H262.51C262.462 11.096 262.426 11.072 262.402 11.024C262.39 10.964 262.408 10.922 262.456 10.898L264.544 9.908L264.652 9.89C264.76 9.89 264.874 10.028 264.994 10.304C265.114 10.58 265.174 10.934 265.174 11.366C265.63 10.838 266.08 10.448 266.524 10.196C266.98 9.944 267.448 9.818 267.928 9.818C268.6 9.818 269.116 10.004 269.476 10.376C269.836 10.748 270.016 11.294 270.016 12.014V15.542C270.016 15.902 270.04 16.166 270.088 16.334C270.148 16.502 270.256 16.622 270.412 16.694C270.568 16.754 270.808 16.784 271.132 16.784ZM273.987 7.784C273.735 7.784 273.537 7.718 273.393 7.586C273.261 7.454 273.195 7.268 273.195 7.028C273.195 6.788 273.261 6.602 273.393 6.47C273.537 6.338 273.735 6.272 273.987 6.272C274.227 6.272 274.413 6.338 274.545 6.47C274.677 6.602 274.743 6.788 274.743 7.028C274.743 7.268 274.677 7.454 274.545 7.586C274.413 7.718 274.227 7.784 273.987 7.784ZM272.475 17C272.451 17 272.439 16.964 272.439 16.892C272.439 16.82 272.451 16.784 272.475 16.784C272.799 16.784 273.039 16.754 273.195 16.694C273.363 16.622 273.477 16.502 273.537 16.334C273.597 16.154 273.627 15.89 273.627 15.542V12.176C273.627 11.744 273.579 11.432 273.483 11.24C273.399 11.048 273.249 10.952 273.033 10.952C272.817 10.952 272.547 11.036 272.223 11.204H272.205C272.157 11.204 272.121 11.174 272.097 11.114C272.073 11.054 272.079 11.012 272.115 10.988L274.455 9.908L274.527 9.89C274.551 9.89 274.581 9.908 274.617 9.944C274.653 9.968 274.671 9.998 274.671 10.034C274.671 10.118 274.665 10.358 274.653 10.754C274.641 11.15 274.635 11.618 274.635 12.158V15.542C274.635 15.902 274.665 16.166 274.725 16.334C274.785 16.502 274.893 16.622 275.049 16.694C275.205 16.754 275.445 16.784 275.769 16.784C275.805 16.784 275.823 16.82 275.823 16.892C275.823 16.964 275.805 17 275.769 17C275.493 17 275.271 16.994 275.103 16.982L274.131 16.964L273.159 16.982C272.991 16.994 272.763 17 272.475 17ZM283.912 16.028C283.96 16.028 283.99 16.058 284.002 16.118C284.014 16.166 283.996 16.202 283.948 16.226L282.094 17.108C282.046 17.132 281.998 17.144 281.95 17.144C281.794 17.144 281.656 17.042 281.536 16.838C281.416 16.622 281.338 16.334 281.302 15.974L280.366 16.586C280.066 16.778 279.802 16.916 279.574 17C279.346 17.084 279.106 17.126 278.854 17.126C278.41 17.126 278.062 17.012 277.81 16.784C277.57 16.544 277.45 16.244 277.45 15.884C277.45 15.524 277.594 15.212 277.882 14.948C278.17 14.684 278.644 14.432 279.304 14.192L281.284 13.454V12.23C281.284 10.886 280.906 10.214 280.15 10.214C279.742 10.214 279.43 10.352 279.214 10.628C279.01 10.892 278.872 11.198 278.8 11.546C278.764 11.762 278.698 11.942 278.602 12.086C278.506 12.218 278.344 12.284 278.116 12.284C277.924 12.284 277.774 12.23 277.666 12.122C277.57 12.014 277.522 11.888 277.522 11.744C277.522 11.456 277.708 11.168 278.08 10.88C278.452 10.592 278.896 10.352 279.412 10.16C279.928 9.968 280.39 9.872 280.798 9.872C281.29 9.872 281.662 10.028 281.914 10.34C282.166 10.652 282.292 11.102 282.292 11.69V15.056C282.292 15.476 282.346 15.782 282.454 15.974C282.562 16.166 282.742 16.262 282.994 16.262C283.222 16.262 283.516 16.184 283.876 16.028H283.912ZM281.284 15.722V15.632V13.706L279.61 14.354C279.274 14.486 279.028 14.642 278.872 14.822C278.728 14.99 278.656 15.194 278.656 15.434C278.656 15.722 278.746 15.968 278.926 16.172C279.118 16.364 279.364 16.46 279.664 16.46C279.904 16.46 280.192 16.364 280.528 16.172L281.284 15.722ZM284.703 17C284.667 17 284.649 16.964 284.649 16.892C284.649 16.82 284.667 16.784 284.703 16.784C285.027 16.784 285.267 16.754 285.423 16.694C285.579 16.622 285.687 16.502 285.747 16.334C285.807 16.154 285.837 15.89 285.837 15.542V6.236C285.837 5.804 285.795 5.492 285.711 5.3C285.627 5.108 285.477 5.012 285.261 5.012C285.081 5.012 284.805 5.096 284.433 5.264H284.397C284.361 5.264 284.331 5.234 284.307 5.174C284.295 5.114 284.307 5.078 284.343 5.066L286.647 3.968C286.671 3.956 286.701 3.95 286.737 3.95C286.761 3.95 286.791 3.968 286.827 4.004C286.875 4.028 286.899 4.058 286.899 4.094V15.542C286.899 15.89 286.923 16.148 286.971 16.316C287.031 16.484 287.139 16.604 287.295 16.676C287.451 16.748 287.691 16.784 288.015 16.784C288.051 16.784 288.069 16.82 288.069 16.892C288.069 16.964 288.051 17 288.015 17C287.751 17 287.535 16.994 287.367 16.982L286.359 16.964L285.387 16.982C285.219 16.994 284.991 17 284.703 17ZM290.442 11.15C290.442 11.57 290.58 11.906 290.856 12.158C291.132 12.398 291.534 12.656 292.062 12.932C292.482 13.148 292.806 13.334 293.034 13.49C293.274 13.646 293.478 13.85 293.646 14.102C293.814 14.354 293.898 14.66 293.898 15.02C293.898 15.632 293.67 16.148 293.214 16.568C292.758 16.988 292.14 17.198 291.36 17.198C290.724 17.198 290.148 17.018 289.632 16.658C289.56 16.61 289.524 16.538 289.524 16.442L289.488 15.038C289.488 15.002 289.518 14.984 289.578 14.984C289.65 14.972 289.692 14.984 289.704 15.02C289.932 15.62 290.226 16.076 290.586 16.388C290.958 16.7 291.384 16.856 291.864 16.856C292.26 16.856 292.56 16.76 292.764 16.568C292.968 16.376 293.058 16.094 293.034 15.722C293.022 15.266 292.878 14.918 292.602 14.678C292.338 14.426 291.936 14.168 291.396 13.904C291 13.712 290.682 13.538 290.442 13.382C290.214 13.226 290.016 13.022 289.848 12.77C289.692 12.518 289.614 12.206 289.614 11.834C289.614 11.186 289.854 10.694 290.334 10.358C290.826 10.01 291.402 9.836 292.062 9.836C292.542 9.836 292.98 9.926 293.376 10.106C293.448 10.13 293.49 10.16 293.502 10.196C293.526 10.22 293.538 10.256 293.538 10.304C293.538 10.544 293.532 10.73 293.52 10.862L293.502 11.618C293.502 11.642 293.466 11.654 293.394 11.654C293.322 11.654 293.286 11.642 293.286 11.618C293.286 11.366 293.19 11.132 292.998 10.916C292.806 10.688 292.566 10.508 292.278 10.376C291.99 10.244 291.702 10.178 291.414 10.178C291.114 10.178 290.874 10.262 290.694 10.43C290.526 10.586 290.442 10.826 290.442 11.15Z" fill="black"/>
<path d="M157 57C157 65.8366 149.837 73 141 73C132.163 73 125 65.8366 125 57C125 48.1634 132.163 41 141 41C149.837 41 157 48.1634 157 57Z" fill="black"/>
<path d="M183 57C183 65.8366 175.837 73 167 73C158.163 73 151 65.8366 151 57C151 48.1634 158.163 41 167 41C175.837 41 183 48.1634 183 57Z" fill="black"/>
<path d="M206 57C206 65.8366 198.837 73 190 73C181.163 73 174 65.8366 174 57C174 48.1634 181.163 41 190 41C198.837 41 206 48.1634 206 57Z" fill="black"/>
<path d="M233 56C233 64.8366 225.837 72 217 72C208.163 72 201 64.8366 201 56C201 47.1634 208.163 40 217 40C225.837 40 233 47.1634 233 56Z" fill="black"/>
<path d="M258 57C258 65.8366 251.06 73 242.5 73C233.94 73 227 65.8366 227 57C227 48.1634 233.94 41 242.5 41C251.06 41 258 48.1634 258 57Z" fill="black"/>
</svg>
